# xmcd CD database file
#
# Track frame offsets:
#	150
#	14715
#	24530
#	37427
#	59795
#	67685
#	84349
#	97522
#	104818
#	119728
#	131919
#	141363
#
# Disc length: 2096 seconds
#
# Revision: 0
# Processed by: cddbd v1.5.2PL0 Copyright (c) Steve Scherf et al.
# Submitted via: NeoAudio 9.9.9
#
DISCID=b5082e0c
DTITLE=Terje Bratsveen - Big Life
DYEAR=2003
DGENRE=Country
TTITLE0=På ræva på skaran
TTITLE1=Five pounds of pork
TTITLE2=Winthorne blues
TTITLE3=Luvky Seven
TTITLE4=C.G.P.
TTITLE5=Logjam
TTITLE6=Mary Josefine
TTITLE7=Randsfjordlåten
TTITLE8=Axel and Emma
TTITLE9=Lockjaw
TTITLE10=Skogen hemme
TTITLE11=Ukjent
EXTD=YEAR: 2003
EXTT0=
EXTT1=
EXTT2=
EXTT3=
EXTT4=
EXTT5=
EXTT6=
EXTT7=
EXTT8=
EXTT9=
EXTT10=
EXTT11=
PLAYORDER=
